<mxfile host="Electron" modified="2024-12-04T13:45:55.150Z" agent="Mozilla/5.0 (Windows NT 10.0; Win64; x64) AppleWebKit/537.36 (KHTML, like Gecko) draw.io/24.6.4 Chrome/124.0.6367.207 Electron/30.0.6 Safari/537.36" etag="P0gevhBsBgaVFD3aNZoa" version="24.6.4" type="device">
  <diagram name="ページ1" id="4lxp0x-kZSbqpuxwMLeO">
    <mxGraphModel dx="1434" dy="836" grid="1" gridSize="10" guides="1" tooltips="1" connect="1" arrows="1" fold="1" page="1" pageScale="1" pageWidth="1169" pageHeight="827" math="0" shadow="0">
      <root>
        <mxCell id="0" />
        <mxCell id="1" parent="0" />
        <mxCell id="mMI9UZceNWBdyi8-wl6L-4" value="" style="pointerEvents=1;verticalLabelPosition=bottom;shadow=0;dashed=0;align=center;html=1;verticalAlign=top;shape=mxgraph.electrical.resistors.resistor_1;aspect=fixed;fillColor=none;" vertex="1" parent="1">
          <mxGeometry x="90" y="183" width="180" height="36" as="geometry" />
        </mxCell>
        <mxCell id="mMI9UZceNWBdyi8-wl6L-6" value="" style="verticalLabelPosition=bottom;shadow=0;dashed=0;align=center;html=1;verticalAlign=top;shape=mxgraph.electrical.transistors.npn_transistor_5;aspect=fixed;" vertex="1" parent="1">
          <mxGeometry x="280" y="107.25" width="120" height="187.5" as="geometry" />
        </mxCell>
        <mxCell id="mMI9UZceNWBdyi8-wl6L-10" value="" style="endArrow=oval;html=1;rounded=0;exitX=1;exitY=0.5;exitDx=0;exitDy=0;exitPerimeter=0;entryX=0;entryY=0.5;entryDx=0;entryDy=0;entryPerimeter=0;endFill=1;" edge="1" parent="1" source="mMI9UZceNWBdyi8-wl6L-4" target="mMI9UZceNWBdyi8-wl6L-6">
          <mxGeometry width="50" height="50" relative="1" as="geometry">
            <mxPoint x="560" y="490" as="sourcePoint" />
            <mxPoint x="610" y="440" as="targetPoint" />
          </mxGeometry>
        </mxCell>
        <mxCell id="mMI9UZceNWBdyi8-wl6L-12" value="" style="endArrow=none;html=1;rounded=0;exitX=1;exitY=0.5;exitDx=0;exitDy=0;exitPerimeter=0;entryX=0;entryY=0.5;entryDx=0;entryDy=0;entryPerimeter=0;endFill=0;startArrow=oval;startFill=1;" edge="1" parent="1">
          <mxGeometry width="50" height="50" relative="1" as="geometry">
            <mxPoint x="61" y="201" as="sourcePoint" />
            <mxPoint x="91" y="201" as="targetPoint" />
          </mxGeometry>
        </mxCell>
        <mxCell id="mMI9UZceNWBdyi8-wl6L-14" value="" style="endArrow=oval;html=1;rounded=0;exitX=1;exitY=0.5;exitDx=0;exitDy=0;exitPerimeter=0;endFill=1;startArrow=none;startFill=0;" edge="1" parent="1">
          <mxGeometry width="50" height="50" relative="1" as="geometry">
            <mxPoint x="400" y="107.25" as="sourcePoint" />
            <mxPoint x="520" y="107" as="targetPoint" />
          </mxGeometry>
        </mxCell>
        <mxCell id="mMI9UZceNWBdyi8-wl6L-15" value="" style="endArrow=oval;html=1;rounded=0;entryX=1;entryY=1;entryDx=0;entryDy=0;entryPerimeter=0;exitX=0.62;exitY=0;exitDx=0;exitDy=0;exitPerimeter=0;endFill=1;" edge="1" parent="1" source="mMI9UZceNWBdyi8-wl6L-16" target="mMI9UZceNWBdyi8-wl6L-6">
          <mxGeometry width="50" height="50" relative="1" as="geometry">
            <mxPoint x="400" y="440" as="sourcePoint" />
            <mxPoint x="610" y="440" as="targetPoint" />
          </mxGeometry>
        </mxCell>
        <mxCell id="mMI9UZceNWBdyi8-wl6L-16" value="" style="pointerEvents=1;verticalLabelPosition=bottom;shadow=0;dashed=0;align=center;html=1;verticalAlign=top;shape=mxgraph.electrical.miscellaneous.chassis;aspect=fixed;" vertex="1" parent="1">
          <mxGeometry x="350" y="350" width="80" height="39.38" as="geometry" />
        </mxCell>
        <mxCell id="mMI9UZceNWBdyi8-wl6L-17" value="&lt;font style=&quot;font-size: 30px;&quot;&gt;V&lt;sub&gt;BB&lt;/sub&gt;&lt;/font&gt;" style="text;html=1;align=center;verticalAlign=middle;whiteSpace=wrap;rounded=0;" vertex="1" parent="1">
          <mxGeometry x="30" y="160" width="60" height="30" as="geometry" />
        </mxCell>
        <mxCell id="mMI9UZceNWBdyi8-wl6L-18" value="&lt;font style=&quot;font-size: 30px;&quot;&gt;V&lt;sub&gt;B&lt;/sub&gt;&lt;/font&gt;" style="text;html=1;align=center;verticalAlign=middle;whiteSpace=wrap;rounded=0;" vertex="1" parent="1">
          <mxGeometry x="250" y="160" width="60" height="30" as="geometry" />
        </mxCell>
        <mxCell id="mMI9UZceNWBdyi8-wl6L-20" value="&lt;font style=&quot;font-size: 30px;&quot;&gt;V&lt;/font&gt;&lt;font style=&quot;font-size: 25px;&quot;&gt;&lt;sub&gt;C&lt;/sub&gt;&lt;/font&gt;" style="text;html=1;align=center;verticalAlign=middle;whiteSpace=wrap;rounded=0;" vertex="1" parent="1">
          <mxGeometry x="490" y="70" width="60" height="30" as="geometry" />
        </mxCell>
        <mxCell id="mMI9UZceNWBdyi8-wl6L-21" value="&lt;font style=&quot;font-size: 30px;&quot;&gt;V&lt;/font&gt;&lt;font style=&quot;font-size: 20.8333px;&quot;&gt;E&lt;/font&gt;&lt;span style=&quot;color: rgba(0, 0, 0, 0); font-family: monospace; font-size: 0px; text-align: start; text-wrap: nowrap;&quot;&gt;%3CmxGraphModel%3E%3Croot%3E%3CmxCell%20id%3D%220%22%2F%3E%3CmxCell%20id%3D%221%22%20parent%3D%220%22%2F%3E%3CmxCell%20id%3D%222%22%20value%3D%22%26lt%3Bfont%20style%3D%26quot%3Bfont-size%3A%2030px%3B%26quot%3B%26gt%3BV%26lt%3B%2Ffont%26gt%3B%26lt%3Bfont%20style%3D%26quot%3Bfont-size%3A%2025px%3B%26quot%3B%26gt%3B%26lt%3Bsub%26gt%3BC%26lt%3B%2Fsub%26gt%3B%26lt%3B%2Ffont%26gt%3B%22%20style%3D%22text%3Bhtml%3D1%3Balign%3Dcenter%3BverticalAlign%3Dmiddle%3BwhiteSpace%3Dwrap%3Brounded%3D0%3B%22%20vertex%3D%221%22%20parent%3D%221%22%3E%3CmxGeometry%20x%3D%22490%22%20y%3D%2270%22%20width%3D%2260%22%20height%3D%2230%22%20as%3D%22geometry%22%2F%3E%3C%2FmxCell%3E%3C%2Froot%3E%3C%2FmxGraphModel%3E&lt;/span&gt;" style="text;html=1;align=center;verticalAlign=middle;whiteSpace=wrap;rounded=0;" vertex="1" parent="1">
          <mxGeometry x="400" y="280" width="60" height="30" as="geometry" />
        </mxCell>
        <mxCell id="mMI9UZceNWBdyi8-wl6L-23" value="&lt;span style=&quot;font-size: 30px;&quot;&gt;R&lt;sub&gt;B&lt;/sub&gt;&lt;/span&gt;" style="text;html=1;align=center;verticalAlign=middle;whiteSpace=wrap;rounded=0;" vertex="1" parent="1">
          <mxGeometry x="155" y="230" width="50" height="40" as="geometry" />
        </mxCell>
        <mxCell id="mMI9UZceNWBdyi8-wl6L-26" value="&lt;font style=&quot;font-size: 30px;&quot;&gt;100 kΩ&lt;/font&gt;" style="text;html=1;align=center;verticalAlign=middle;whiteSpace=wrap;rounded=0;fillColor=none;" vertex="1" parent="1">
          <mxGeometry x="125" y="186" width="110" height="30" as="geometry" />
        </mxCell>
      </root>
    </mxGraphModel>
  </diagram>
</mxfile>
